<svg id="visual" viewBox="0 0 960 300" width="960" height="300" xmlns="http://www.w3.org/2000/svg" xmlns:xlink="http://www.w3.org/1999/xlink" version="1.1"><rect x="0" y="0" width="960" height="300" fill="#383A64"></rect><path d="M0 127L22.8 121.7C45.7 116.3 91.3 105.7 137 107C182.7 108.3 228.3 121.7 274 126.5C319.7 131.3 365.3 127.7 411.2 129.7C457 131.7 503 139.3 548.8 136.2C594.7 133 640.3 119 686 120.5C731.7 122 777.3 139 823 149.2C868.7 159.3 914.3 162.7 937.2 164.3L960 166L960 0L937.2 0C914.3 0 868.7 0 823 0C777.3 0 731.7 0 686 0C640.3 0 594.7 0 548.8 0C503 0 457 0 411.2 0C365.3 0 319.7 0 274 0C228.3 0 182.7 0 137 0C91.3 0 45.7 0 22.8 0L0 0Z" fill="#774583"></path><path d="M0 61L22.8 67C45.7 73 91.3 85 137 89.2C182.7 93.3 228.3 89.7 274 92C319.7 94.3 365.3 102.7 411.2 100.3C457 98 503 85 548.8 77C594.7 69 640.3 66 686 73.5C731.7 81 777.3 99 823 103C868.7 107 914.3 97 937.2 92L960 87L960 0L937.2 0C914.3 0 868.7 0 823 0C777.3 0 731.7 0 686 0C640.3 0 594.7 0 548.8 0C503 0 457 0 411.2 0C365.3 0 319.7 0 274 0C228.3 0 182.7 0 137 0C91.3 0 45.7 0 22.8 0L0 0Z" fill="#bf3486"></path><path d="M0 46L22.8 47.8C45.7 49.7 91.3 53.3 137 54C182.7 54.7 228.3 52.3 274 49.5C319.7 46.7 365.3 43.3 411.2 42.7C457 42 503 44 548.8 46.7C594.7 49.3 640.3 52.7 686 49.7C731.7 46.7 777.3 37.3 823 34.5C868.7 31.7 914.3 35.3 937.2 37.2L960 39L960 0L937.2 0C914.3 0 868.7 0 823 0C777.3 0 731.7 0 686 0C640.3 0 594.7 0 548.8 0C503 0 457 0 411.2 0C365.3 0 319.7 0 274 0C228.3 0 182.7 0 137 0C91.3 0 45.7 0 22.8 0L0 0Z" fill="#ff0066"></path></svg>