<svg id="visual" viewBox="0 0 900 300" width="900" height="300" xmlns="http://www.w3.org/2000/svg" xmlns:xlink="http://www.w3.org/1999/xlink" version="1.1"><rect x="0" y="0" width="900" height="300" fill="#202731"></rect><path d="M0 103L21.5 98.7C43 94.3 86 85.7 128.8 83.7C171.7 81.7 214.3 86.3 257.2 90.8C300 95.3 343 99.7 385.8 104.7C428.7 109.7 471.3 115.3 514.2 115C557 114.7 600 108.3 642.8 100.5C685.7 92.7 728.3 83.3 771.2 85.3C814 87.3 857 100.7 878.5 107.3L900 114L900 0L878.5 0C857 0 814 0 771.2 0C728.3 0 685.7 0 642.8 0C600 0 557 0 514.2 0C471.3 0 428.7 0 385.8 0C343 0 300 0 257.2 0C214.3 0 171.7 0 128.8 0C86 0 43 0 21.5 0L0 0Z" fill="#ff6f61"></path><path d="M0 97L21.5 95C43 93 86 89 128.8 83C171.7 77 214.3 69 257.2 66.3C300 63.7 343 66.3 385.8 70.5C428.7 74.7 471.3 80.3 514.2 78.8C557 77.3 600 68.7 642.8 68.8C685.7 69 728.3 78 771.2 79.3C814 80.7 857 74.3 878.5 71.2L900 68L900 0L878.5 0C857 0 814 0 771.2 0C728.3 0 685.7 0 642.8 0C600 0 557 0 514.2 0C471.3 0 428.7 0 385.8 0C343 0 300 0 257.2 0C214.3 0 171.7 0 128.8 0C86 0 43 0 21.5 0L0 0Z" fill="#f76455"></path><path d="M0 78L21.5 73.2C43 68.3 86 58.7 128.8 55.7C171.7 52.7 214.3 56.3 257.2 55.7C300 55 343 50 385.8 52.3C428.7 54.7 471.3 64.3 514.2 65.7C557 67 600 60 642.8 60.2C685.7 60.3 728.3 67.7 771.2 66C814 64.3 857 53.7 878.5 48.3L900 43L900 0L878.5 0C857 0 814 0 771.2 0C728.3 0 685.7 0 642.8 0C600 0 557 0 514.2 0C471.3 0 428.7 0 385.8 0C343 0 300 0 257.2 0C214.3 0 171.7 0 128.8 0C86 0 43 0 21.5 0L0 0Z" fill="#ee5849"></path><path d="M0 41L21.5 43.5C43 46 86 51 128.8 51.5C171.7 52 214.3 48 257.2 43.5C300 39 343 34 385.8 34.7C428.7 35.3 471.3 41.7 514.2 41.5C557 41.3 600 34.7 642.8 32.8C685.7 31 728.3 34 771.2 36.3C814 38.7 857 40.3 878.5 41.2L900 42L900 0L878.5 0C857 0 814 0 771.2 0C728.3 0 685.7 0 642.8 0C600 0 557 0 514.2 0C471.3 0 428.7 0 385.8 0C343 0 300 0 257.2 0C214.3 0 171.7 0 128.8 0C86 0 43 0 21.5 0L0 0Z" fill="#e64c3d"></path><path d="M0 32L21.5 32.2C43 32.3 86 32.7 128.8 30.8C171.7 29 214.3 25 257.2 23.7C300 22.3 343 23.7 385.8 23.5C428.7 23.3 471.3 21.7 514.2 22.2C557 22.7 600 25.3 642.8 24.7C685.7 24 728.3 20 771.2 20.2C814 20.3 857 24.7 878.5 26.8L900 29L900 0L878.5 0C857 0 814 0 771.2 0C728.3 0 685.7 0 642.8 0C600 0 557 0 514.2 0C471.3 0 428.7 0 385.8 0C343 0 300 0 257.2 0C214.3 0 171.7 0 128.8 0C86 0 43 0 21.5 0L0 0Z" fill="#dd3f31"></path></svg>